<?xml version="1.0" standalone="no"?>
<!DOCTYPE svg PUBLIC "-//W3C//DTD SVG 20010904//EN"
 "http://www.w3.org/TR/2001/REC-SVG-20010904/DTD/svg10.dtd">
<svg version="1.0" xmlns="http://www.w3.org/2000/svg"
 width="64.000000pt" height="64.000000pt" viewBox="0 0 64.000000 64.000000"
 preserveAspectRatio="xMidYMid meet">

<g transform="translate(0.000000,64.000000) scale(0.100000,-0.100000)"
fill="#000000" stroke="none">
<path d="M53 538 c-2 -5 3 -8 12 -8 12 0 14 -8 9 -39 -3 -22 -1 -48 5 -62 12
-23 11 -23 -3 -5 -9 11 -16 35 -16 54 0 35 -21 61 -48 62 -11 0 -13 -23 -9
-112 3 -62 8 -128 12 -147 6 -25 5 -32 -4 -27 -9 6 -11 -10 -9 -60 2 -43 8
-69 16 -72 6 -2 12 4 12 13 0 9 5 13 11 10 7 -5 9 4 5 27 -3 18 -8 62 -11 98
-6 61 -5 64 10 45 l17 -20 -7 20 c-8 26 -17 135 -10 135 9 0 39 -65 36 -80 -2
-8 1 -12 5 -7 4 4 16 -1 27 -10 18 -17 18 -17 6 10 -15 33 -8 41 38 41 27 0
42 -7 59 -28 14 -15 22 -32 19 -37 -4 -5 2 -6 11 -2 13 5 16 3 11 -10 -3 -9
-2 -17 4 -17 6 0 13 9 16 20 3 11 9 17 14 14 34 -21 -23 71 -73 118 -57 52
-48 64 45 59 79 -3 183 7 172 17 -8 9 -376 8 -382 0z m77 -74 c0 -28 -3 -35
-17 -32 -27 5 -13 66 15 68 1 0 2 -16 2 -36z m70 -34 c0 -4 -12 -5 -27 -1 -16
4 -28 13 -27 19 4 48 4 48 29 19 14 -15 25 -32 25 -37z"/>
<path d="M530 540 c-10 -6 -11 -10 -2 -10 20 0 14 -27 -15 -58 -34 -36 -130
-84 -138 -68 -2 6 -2 1 1 -12 3 -13 0 -30 -8 -39 -11 -15 -11 -16 6 -10 16 6
17 5 6 -8 -9 -11 -9 -15 -1 -15 7 0 10 -4 6 -9 -3 -5 0 -13 6 -17 8 -4 9 -3 5
4 -4 7 -2 12 4 12 6 0 9 4 6 9 -7 11 33 47 63 56 13 4 19 10 13 14 -16 10 73
82 93 75 11 -4 15 -14 12 -26 -5 -19 -5 -19 14 -2 12 11 19 13 19 5 0 -7 5 -9
10 -6 6 3 10 28 10 56 0 47 -1 49 -27 49 -16 0 -37 3 -48 5 -11 3 -27 1 -35
-5z m58 -40 c-1 -25 -3 -28 -16 -18 -8 7 -10 14 -4 16 6 2 8 10 5 18 -3 8 0
14 5 14 6 0 10 -13 10 -30z"/>
<path d="M491 530 c0 -8 -10 -33 -22 -54 -11 -21 -15 -35 -9 -31 17 11 42 65
37 83 -4 13 -5 14 -6 2z"/>
<path d="M627 383 c-5 -13 -6 -27 -3 -32 4 -5 -1 -31 -10 -56 -17 -52 -13 -66
11 -41 12 12 15 32 13 83 -2 49 -5 62 -11 46z"/>
<path d="M140 370 c0 -13 7 -20 19 -20 14 0 18 5 14 20 -3 11 -12 20 -19 20
-8 0 -14 -9 -14 -20z"/>
<path d="M518 358 c26 -13 28 -25 5 -50 -22 -25 2 -23 27 2 26 26 25 34 -5 48
-33 15 -58 14 -27 0z"/>
<path d="M437 336 c-7 -18 1 -26 27 -26 16 0 18 2 7 9 -7 5 -10 14 -7 20 4 6
1 11 -7 11 -8 0 -17 -6 -20 -14z"/>
<path d="M600 190 c-6 -23 -13 -47 -16 -55 -4 -10 2 -13 23 -11 26 3 28 6 28
45 0 61 -21 74 -35 21z"/>
<path d="M246 135 c5 -11 22 -15 73 -14 46 0 60 3 46 9 -11 5 -34 6 -51 3 -18
-3 -35 0 -38 6 -11 17 -36 13 -30 -4z"/>
</g>
</svg>
